<svg version="1.1" viewBox="0 0 2048 2048" width="1280" height="1280" xmlns="http://www.w3.org/2000/svg">
<path opacity="0.15" fill-rule="evenodd" clip-rule="evenodd" d="M3 1C1.89543 1 1 1.89543 1 3V37C1 38.1046 1.89543 39 3 39H18.9C20.0046 39 20.9 38.1046 20.9 37V3C20.9 1.89543 20.0046 1 18.9 1H15.6631V2H6.23676V1H3Z" fill="url(#paint0_linear)"/>
<path transform="translate(169,223)" d="m0 0h1708l22 2 16 4 18 8 16 10 13 12 9 10 9 14 7 14 6 20 2 14v1385l-3 19-6 18-7 14-10 14-11 12-11 9-13 8-13 6-16 5-19 3h-1725l-15-2-15-4-16-7-15-10-14-12-11-13-8-13-6-12-6-19-2-13v-1392l4-19 6-16 9-16 10-13 12-12 15-11 16-8 14-5 17-3zm2 65-15 2-12 5-9 7-8 9-7 14-2 9v231h1811l1-5v-223l-2-11-4-10-7-10-7-7-10-6-13-4-9-1zm-16 341-37 1v1084l3 12 6 11 9 10 11 7 11 4 5 1h1721l15-4 11-7 7-6 7-10 4-10 2-11v-1081l-118-1z" fill="url(#paint1_linear)"/>
<path transform="translate(1341,821)" d="m0 0h133l12 3 14 6 11 8 6 5 10 13 7 14 4 18 2 18 4 10 6 8 7 6 10 5 9 2h11l12-4 16-7 14-3h17l15 3 12 5 12 7 11 10 10 14 16 28 30 52 10 18 5 13 2 10v18l-3 14-6 15-9 12-10 10-16 11-7 8-5 11-1 5v16l4 11 6 9 7 6 14 10 10 10 7 11 6 13 3 14v18l-3 14-5 12-12 22-10 17-30 52-7 11-8 10-7 7-13 8-16 6-9 2h-22l-15-4-17-8-6-2h-15l-10 3-10 6-7 7-6 11-2 13-2 15-4 14-6 12-8 11-11 10-10 6-16 6-12 2h-127l-16-4-16-8-11-9-10-12-8-16-4-16-2-19-4-11-6-8-8-7-12-5-3-1h-15l-10 3-15 7-16 4h-20l-16-4-16-8-10-8-10-11-9-15-45-78-10-19-4-15-1-12 2-16 5-15 7-12 10-12 19-14 6-5 6-10 3-12v-12l-4-13-6-9-7-6-13-9-11-11-9-14-5-13-2-9-1-12 2-15 4-13 10-19 14-24 15-26 16-28 10-16 12-12 14-9 13-5 10-2h23l15 4 17 8 8 2h12l10-3 11-6 9-10 4-9 2-12 2-17 5-15 6-11 9-11 9-8 13-8 15-5zm8 65-5 5-2 16-5 22-7 16-9 14-6 7v2h-2l-5 5-9 8-17 10-15 6-17 4-6 1h-20l-16-3-17-6-11-5-5-1-5 3-6 9-12 20-6 11-30 52-4 8v7l9 8 11 8 7 6 11 14 8 14 5 12 4 15 1 7v26l-3 16-4 12-8 16-6 9-5 6v2h-2l-4 4v2l-4 2-9 7-8 6-3 3v7l6 12 14 24 16 28 15 26 7 10 3 2h7l18-8 14-4 16-2h13l15 2 17 5 16 8 11 7 12 11 7 7 10 15 8 18 4 17 3 21 5 5h118l5-6 4-26 5-17 9-17 9-12 8-9 13-10 14-8 11-5 15-4 17-2h13l14 2 16 5 16 7h7l5-4 10-17 15-26 12-21 15-26 4-8v-6l-5-6-14-10-8-7-11-14-6-10-6-13-5-19-1-6v-26l3-16 4-12 8-16 6-9v-2h2l8-10 15-12 8-6 2-2-1-9-9-17-14-24-30-52-6-7-5-1-13 5-12 5-22 5h-20l-20-4-16-6-13-7-13-10-6-5-9-11-10-15-6-15-4-16-3-21-3-5-2-1z" fill="url(#paint1_linear)"/>
<path transform="translate(370,821)" d="m0 0h28l15 3 18 6 15 8 11 8 10 9 8 8 10 14 8 16 6 18 2 12 1 12v218l-2 11-5 8-9 8-9 3h-16l-10-4-8-7-5-9-1-4-1-24v-35l-105-1v59l-3 9-7 9-9 5-6 2h-15l-10-4-8-7-5-8-2-7v-228l3-18 6-19 9-17 11-14 5-6h2v-2l11-9 15-10 16-7 19-5zm5 65-13 4-10 6-7 6-7 10-5 11-2 12v99h105l1-48v-44l-2-18-6-14-9-11-14-9-13-4z" fill="url(#paint1_linear)"/>
<path transform="translate(1398,1034)" d="m0 0h20l18 2 17 4 22 8 18 10 14 10 11 10 2 1v2h2v2h2l7 8 11 15 10 17 8 19 5 18 3 18v34l-4 22-8 24-10 19-8 12-8 10-9 10-3 3h-2v2l-10 8-13 9-23 12-18 6-18 4-13 2h-26l-20-3-21-6-19-8-18-11-14-11-13-12-9-11-10-14-12-23-7-21-4-21-1-12v-13l2-20 4-18 5-15 10-21 10-15 10-13h2l2-4 8-8 14-11 14-9 15-8 19-7 18-4zm1 65-16 3-12 4-12 6-11 8-12 11-8 11-7 12-5 13-3 15-1 16 2 16 5 16 8 16 9 12 9 9 14 10 17 8 16 4 9 1h14l14-2 15-5 14-7 16-12 10-11 7-11 6-12 4-13 2-12v-21l-3-15-5-14-8-15-8-10-9-9-15-10-15-7-16-4-6-1z" fill="url(#paint1_linear)"/>
<path transform="translate(589,821)" d="m0 0h106l17 3 15 5 16 8 13 9 12 11 8 9 10 15 8 18 5 19 1 6v29l-3 15-6 18-8 15-8 11-11 12-9 8-10 7-16 8-18 6-10 2-10 1h-61v97l-2 11-5 8-9 8-9 3h-16l-10-4-8-7-5-9-1-4-1-25v-278l2-13 4-8 6-7 10-6zm41 65v105h59l12-3 12-6 11-10 8-14 3-11v-16l-3-12-6-11-9-10-9-6-12-5-6-1z" fill="url(#paint1_linear)"/>
<path transform="translate(1360,394)" d="m0 0h436l9 2 6 4 5 5 5 7 2 6v17l-6 12-7 7-9 4-8 1h-433l-10-3-10-9-5-10-1-3v-14l4-11 4-6 10-7z" fill="url(#paint1_linear)"/>
<path transform="translate(763,1248)" d="m0 0h13l9 4 11 9 14 14v2l4 2v2l4 2v2l4 2v2h2v2l4 2v2h2v2h2v2h2v2h2v2l4 2 74 74v2h2l8 10 4 9v16l-6 12-134 134-9 5-5 1h-9l-10-3-8-6-6-7-5-11v-14l5-10 11-12 94-94h2l-1-6-7-6-7-8-91-91-6-11-1-9 3-12 8-11 11-7z" fill="url(#paint1_linear)"/>
<path transform="translate(418,1248)" d="m0 0h14l9 4 8 6 7 10 3 10v8l-4 10-7 9-102 102 2 4 104 104 6 10 2 7-1 10-4 9-7 8-6 5-7 3-5 1h-10l-9-3-9-7v-2l-4-2v-2l-4-2v-2l-3-1-5-6-114-114-5-10-1-4v-10l4-11 3-5h2l2-4 129-129z" fill="url(#paint1_linear)"/>
<path transform="translate(888,822)" d="m0 0h15l10 4 8 6 6 10 1 4v313l-4 10-7 8-10 5-4 1h-15l-10-4-9-8-4-8-2-11v-300l2-10 4-8 7-7 8-4z" fill="url(#paint1_linear)"/>
<path transform="translate(630,1249)" d="m0 0h14l11 4 8 6 7 9 2 6v13l-6 20-13 38-13 40-14 41-37 111-5 13-6 9-6 5-8 3-9 1-11-2-8-4-7-6-6-10-1-4v-11l6-20 80-240 6-12 8-7z" fill="url(#paint1_linear)"/>
<path transform="translate(379,394)" d="m0 0h9l10 3 6 4 5 5 5 7 2 6v15l-4 9-7 8-5 4-11 4h-10l-10-3-9-7-6-9-2-6v-15l4-10 7-8 9-5z" fill="url(#paint1_linear)"/>
<path transform="translate(507,394)" d="m0 0h9l10 3 6 4 5 5 5 7 2 6v15l-4 9-9 10-10 5-4 1h-10l-10-3-9-7-6-9-2-6v-15l4-10 7-8 9-5z" fill="url(#paint1_linear)"/>
<path transform="translate(251,394)" d="m0 0h9l10 3 9 6 7 10 2 6v15l-4 9-9 10-10 5-4 1h-10l-10-3-9-7-6-9-2-6v-15l4-10 6-7 7-5z" fill="url(#paint1_linear)"/>
<defs>
<linearGradient id="paint0_linear" x1="2.12767" y1="1" x2="30.7018" y2="17.5237" gradientUnits="userSpaceOnUse">
<stop offset="0.259336" stop-color="#FFDB6E"/>
<stop offset="1" stop-color="#FFBC5E"/>
</linearGradient>
<linearGradient id="paint1_linear" x1="1.59976" y1="8.08974e-07" x2="31.8368" y2="17.6727" gradientUnits="userSpaceOnUse">
<stop offset="0.259336" stop-color="#FFDB6E"/>
<stop offset="1" stop-color="#FFBC5E"/>
</linearGradient>
</defs>
</svg>
