<svg version="1.1" viewBox="0 0 2048 2048" width="1280" height="1280" xmlns="http://www.w3.org/2000/svg">
<path opacity="0.15" fill-rule="evenodd" clip-rule="evenodd" d="M3 1C1.89543 1 1 1.89543 1 3V37C1 38.1046 1.89543 39 3 39H18.9C20.0046 39 20.9 38.1046 20.9 37V3C20.9 1.89543 20.0046 1 18.9 1H15.6631V2H6.23676V1H3Z" fill="url(#paint0_linear)"/>
<path transform="translate(203,195)" d="m0 0h1614l50 1 19 3 18 6 16 8 11 7 10 8 10 9 10 12 9 14 7 14 7 21 3 21v1408l-3 22-6 19-8 16-7 12-9 11-4 5h-2l-2 4-14 11-11 7-16 8-18 6-15 3-12 1h-1674l-18-2-21-6-21-10-14-10-10-9-10-10-11-15-10-19-6-18-3-14-1-8v-1416l4-21 7-20 10-18 9-12 9-10 7-7 17-12 10-6 20-8 18-4 8-1zm-15 61-13 2-11 4-11 6-12 11-9 11-7 15-3 12-1 25v78h1804l1-1v-100l-4-16-8-16-11-12-10-8-12-6-14-4-8-1zm-66 225-1 38v1201l2 16 5 14 7 12 11 12 13 9 12 5 12 3 13 1h1617l51-1 16-4 12-6 12-9 9-10 7-12 4-11 2-11v-1247z" fill="url(#paint1_linear)"/>
<path transform="translate(586,614)" d="m0 0h31l10 4 7 6 5 8 2 7 1 351 33 10 54 17 31 10 45 14 31 10 39 12 31 10 41 13 27 9 8 5 7 8 3 7 1 10-2 10-7 20-10 24-13 26-13 22-13 19-10 13-8 10-10 11-7 8-20 20-8 7-11 9-20 15-20 13-21 12-15 8-28 12-19 7-32 9-36 7-27 3-42 2-33-2-33-5-26-6-27-8-26-10-24-11-19-10-21-13-17-12-13-10-14-12-8-7-16-15-7-8-11-12-11-14-10-13-15-23-11-19-13-26-11-27-9-28-7-30-5-32-2-22v-50l4-36 5-26 7-27 10-29 11-26 14-27 11-18 13-19 13-17 12-14 12-13 20-20 11-9 16-13 20-14 23-14 23-12 24-11 28-10 25-7 29-6 30-4zm-13 61-31 5-28 7-26 9-21 9-27 14-17 11-17 12-16 13-15 14-15 15-7 8-12 15-9 13-10 15-12 21-10 21-8 20-8 26-5 21-4 23-3 32v26l3 32 4 24 7 28 8 23 11 26 13 25 13 20 11 15 13 16 14 15 15 15 11 9 15 12 21 14 17 10 16 8 17 8 28 10 26 7 26 5 31 3h39l29-3 31-6 30-9 21-8 22-10 18-10 19-12 14-10 11-9 14-12 12-11 7-8 5-5v-2h2l16-20 12-17 12-20 10-19 6-13-1-4-57-18-56-18-57-18-145-46-14-7-7-8-3-7-1-7-1-338z" fill="url(#paint1_linear)"/>
<path transform="translate(1624,1083)" d="m0 0h211l1 1v637l-1 1h-210l-1-1zm61 60v518l87 1 3-1v-518z" fill="url(#paint1_linear)"/>
<path transform="translate(719,532)" d="m0 0h29l32 3 29 5 21 5 29 9 26 10 29 14 21 12 18 12 15 11 14 11 11 10 8 7 23 23 9 11 11 13 13 19 12 18 13 23 13 28 10 27 8 26 6 26 4 26 2 21 1 17v21l-2 31-4 29-6 28-7 24-6 10-7 6-9 3h-14l-48-15-81-26-35-11-174-55-18-6-10-6-6-8-3-8-1-85v-216l1-80 6-12 8-7zm38 61v315l21 7 80 25 31 10 45 14 69 22 26 8 24 8h4l3-12 3-19 2-24v-35l-3-30-5-27-7-26-8-23-11-25-11-21-12-19-10-14-11-14-12-13-7-8-8-8-8-7-10-9-20-15-17-11-19-11-29-14-28-10-25-7-25-5-17-2z" fill="url(#paint1_linear)"/>
<path transform="translate(1351,1231)" d="m0 0h207l2 1v489l-2 1h-209l-1-2v-488zm58 61v369l87 1 3-1v-369z" fill="url(#paint1_linear)"/>
<path transform="translate(1073,1333)" d="m0 0h210l1 1v387l-1 1h-210l-1-2v-386zm60 61v267l87 1 3-1v-267z" fill="url(#paint1_linear)"/>
<path transform="translate(243,1661)" d="m0 0h480l2 1v59l-2 1h-480l-2-1v-58z" fill="url(#paint1_linear)"/>
<path transform="translate(536,1493)" d="m0 0h160l28 1 1 1v58l-1 1h-482l-1-1v-58l1-1z" fill="url(#paint1_linear)"/>
<path transform="translate(1323,531)" d="m0 0h483v60l-101 1h-379l-3-1-1-49z" fill="url(#paint1_linear)"/>
<path transform="translate(1323,881)" d="m0 0h483v59l-1 1h-481l-1-1-1-56z" fill="url(#paint1_linear)"/>
<path transform="translate(1323,699)" d="m0 0h483v59l-1 1h-482z" fill="url(#paint1_linear)"/>
<path transform="translate(244,293)" d="m0 0h112l30 1 1 1v57l-2 2h-143l-1-1v-58z" fill="url(#paint1_linear)"/>
<defs>
<linearGradient id="paint0_linear" x1="2.12767" y1="1" x2="30.7018" y2="17.5237" gradientUnits="userSpaceOnUse">
<stop offset="0.259336" stop-color="#FFDB6E"/>
<stop offset="1" stop-color="#FFBC5E"/>
</linearGradient>
<linearGradient id="paint1_linear" x1="1.59976" y1="8.08974e-07" x2="31.8368" y2="17.6727" gradientUnits="userSpaceOnUse">
<stop offset="0.259336" stop-color="#FFDB6E"/>
<stop offset="1" stop-color="#FFBC5E"/>
</linearGradient>
</defs>
</svg>
