<svg version="1.1" viewBox="0 0 2048 2048" width="1280" height="1280" xmlns="http://www.w3.org/2000/svg">
<path opacity="0.15" fill-rule="evenodd" clip-rule="evenodd" d="M3 1C1.89543 1 1 1.89543 1 3V37C1 38.1046 1.89543 39 3 39H18.9C20.0046 39 20.9 38.1046 20.9 37V3C20.9 1.89543 20.0046 1 18.9 1H15.6631V2H6.23676V1H3Z" fill="url(#paint0_linear)"/>
<path transform="translate(1e3 39)" d="m0 0 10 1 12 5 17 10 52 30 24 14 26 15 28 16 24 14 208 120 24 14 28 16 22 13 9 7 6 9 2 7v540l-3 9-7 9-14 9-28 16-26 15-24 14-26 15-28 16-52 30-16 9-11 4h-9l-10-3-10-9-5-10-1-3v-11l4-10 7-8 14-9 156-90 23-13 4-3v-458l-25 14-15 9-28 16-104 60-17 10-28 16-24 14-28 16-19 11-52 30-24 14-28 16-4 1v460l21-12 24-14 26-15 12-7 10-3h10l12 5 7 7 5 10 1 3v11l-4 10-9 10-104 60-24 14-9 4-4 1h-12l-10-4-25-14-22-13-23-13-24-14-52-30-14-8-1 211-3 13-7 14-11 12-10 7-9 4-13 3-18 1h-546l-18-1-14-4-11-6-11-10-7-10-6-14-2-12v-152l4-11 6-8 10-6 12-2 12 3 6 4 8 9 3 8 1 22v129l70-1h493v-356h-563v37l-1 43-6 12-8 7-10 4h-12l-9-3-10-9-5-10-1-6v-214l4-16 9-16 10-10 14-8 12-4 14-1h276l34 1v-295l1-95 6-12 9-8 130-75 24-14 21-12 24-14 78-45 14-8 24-14 28-16 24-14 28-16 24-14 28-16 16-9zm2 66-24 14-25 14-24 14-28 16-24 14-28 16-24 14-21 12-24 14-26 15-24 14-21 12-24 14-23 13-24 14-26 15-7 3 1 3 26 15 24 14 26 15 24 14 28 16 24 14 28 16 24 14 28 16 24 14 52 30 24 14 25 14 24 14 14 8 5-1 28-16 26-15 24-14 28-16 24-14 156-90 24-14 28-16 26-15 21-12 9-6-5-4-25-14-22-13-52-30-28-16-24-14-208-120-24-14zm-428 283v330h159l42 1 13 4 11 6 10 9 6 8 6 12 3 12 1 223 24 14 27 15 15 9 28 16 52 30h1v-459l-10-7-18-10-24-14-208-120-24-14-26-15-28-16-26-15-19-11-13-8zm-374 390v71l1 1h562l1-2v-70z" fill="url(#paint1_linear)"/>
<path transform="translate(556,1374)" d="m0 0h88l15 2 16 8 9 9 6 9 4 12 1 8 1 31 8 2 1-3 7-6 7-8 11-9 12-6 11-2h10l13 3 12 7 13 12 55 55 9 13 4 9 2 10-1 13-3 10-7 12-12 13-6 6h-2l-2 4-1 3 1 4h2v2h34l11 3 10 5 10 9 6 8 5 12 1 5v104l-2 9-7 14-10 10-14 7-14 3-31 1-2 6 7 8 13 13 7 10 4 8 3 13-1 14-4 11-7 11-6 7-12 12-7 6-1 2h-2l-2 4-4 4h-2l-2 4-7 6-7 8-10 10-14 11-12 5-5 1h-18l-12-4-10-7-10-9-12-12h-7l-1 2-1 32-3 13-6 11-9 10-11 7-10 3-7 1h-99l-13-3-12-7-9-9-6-10-3-8-1-6-1-33-3-3h-5l-19 19-10 7-12 5-5 1h-18l-14-5-9-7-10-9-50-50v-2l-4-2-8-10-6-12-2-9v-12l3-12 6-11 7-9h2l2-4h2l2-4 8-7 1-4-1-6h-32l-11-2-10-4-9-7-7-7-6-10-3-9-1-8v-95l2-11 5-12 7-9 10-8 10-5 9-2 36-1 1-7-7-8-11-11-9-12-5-13-1-5v-12l3-12 6-11 11-12 61-61 11-7 16-4h10l10 2 14 7 15 14 10 10h5l3-3 1-34 4-13 4-8 8-9 10-7 10-4 3-1zm13 61-2 1-1 31-4 13-7 12-9 8-16 8-21 8-8 2h-10l-13-3-8-4-9-7-16-16-3-1-46 46 2 4 17 17 6 9 5 13 1 6v9l-4 16-10 23-7 11-8 7-14 7-10 2-30 1v67l34 1 12 4 11 7 8 9 8 16 8 20 2 9v10l-3 12-6 12-11 12-11 11 2 4h2l2 4 4 4h2l2 4h2l2 4 16 16h2l2 4h2l2 4h2l1 3h4l7-8 11-11 14-8 12-3h13l12 3 26 11 10 7 8 9 5 10 3 12 1 30h66l1-3v-20l1-11 4-12 7-10 5-5 8-6 12-6 21-8 7-1h13l12 3 13 8 19 19h4l7-8 37-37-1-4-18-18-6-10-4-10-1-4v-16l5-15 7-17 5-9 7-9 10-7 10-4 4-1 13-1h21v-67l-30-1-12-3-10-5-10-9-7-11-10-24-3-10v-16l4-13 6-10 11-12 7-6v-2h2l-1-4-10-10-5-6-6-5-2-3h-2l-2-4h-2l-2-4h-2l-2-4-5-5-5-4-3 1-7 8-10 10-13 8-14 4h-11l-12-3-20-8-15-8-8-8-7-12-3-10-1-15v-18l-1-1z" fill="url(#paint1_linear)"/>
<path transform="translate(327,420)" d="m0 0h9l11 4 11 10 2 1v2h2v2h2v2h2v2h2l6 7 6 5 7 8 5 4 6 7 6 5 6 7 6 5 6 7 6 5 6 7 6 5 7 8 9 9 5 10 1 3v11l-4 10-7 9-97 97-8 6-10 3h-10l-9-3-10-9-6-12v-12l4-10 10-12 5-5h2l2-4 28-28h2v-2l3-3-268 1-12 3-10 9-4 8-2 16v1010l2 12 4 8 9 8 13 4 147 1 9 4 8 7 5 8 2 6v11l-4 10-8 9-7 4-9 2h-146l-14-2-16-5-15-8-10-8-11-11-9-13-7-15-4-13v-1053l7-19 7-13 8-11h2l2-4 9-8 14-9 15-6 12-3 11-1 269-1-45-45-6-8-4-9v-12l4-10 7-8 8-5z" fill="url(#paint1_linear)"/>
<path transform="translate(1570,520)" d="m0 0h150l18 2 15 5 12 6 11 8 10 9 10 13 8 16 4 13 2 18v217l10 3 16 7 14 9 11 9 11 11 10 14 8 15 7 21 3 19v17l-2 15-4 15-7 17-8 13-9 12-12 12-16 11-16 8-15 6-1 218h2v-2l4-4h2v-2l7-6 1-2h2l2-4h2l2-4h2l2-4h2l2-4h2l2-4h2l2-4h2l2-4 10-8 8-3h15l10 5 5 4 6 9 2 8v9l-3 8-7 10-101 101-9 5-4 1h-13l-8-3-8-6-102-102-6-12-1-9 4-13 9-10 7-4 4-1h15l10 5 10 9 40 40 2 1-1-13v-201l1-4-10-3-16-7-14-9-11-9-11-11-10-14-7-12-7-19-4-19v-27l3-17 5-15 8-16 8-12 12-14 13-11 16-10 17-7 8-2-1-217-3-11-6-9-10-6-10-2-153-1-9-3-8-6-6-10-2-5v-12l4-10 7-8 6-4 5-2zm205 364-15 3-14 7-12 11-7 10-5 12-2 9v17l5 16 6 10 9 10 10 7 12 5 8 2h18l14-4 11-6 9-7 4-5v-2h2l8-16 3-14v-10l-4-17-7-13-10-11-11-7-9-4-15-3z" fill="url(#paint1_linear)"/>
<path transform="translate(1768,1422)" d="m0 0h25l22 2 22 4 23 6 20 7 29 14 21 13 16 12 13 11 13 12 2 4h2l7 8 13 16 12 18 12 21 10 22 9 27 6 26 1 6h2v78l-2 2-4 20-6 23-8 22-9 19-8 14-9 14-8 11-13 16-5 6-10 10h-2v2l-11 9-12 10-21 14-18 10-19 9-25 9-24 6-25 4-11 1h-39l-25-3-23-5-20-6-16-6-20-9-22-13-17-12-13-11-10-9-15-15-9-11-10-13-11-17-10-18-10-23-6-17-2-9 1-9 4-9 7-8 10-5 3-1h11l11 4 9 8 6 13 10 25 10 19 10 15 9 11 11 12 10 10 17 13 14 9 21 11 18 7 18 5 23 4 9 1h35l21-3 24-6 21-8 23-12 18-12 11-9 13-12 12-13 11-15 12-20 9-20 7-21 4-17 3-24v-29l-3-24-5-21-6-17-7-16-8-15-10-15-11-14-8-8-4-5-8-7-15-12-19-12-16-8-14-6-15-5-15-4-20-3-16-1h-15l-22 2-25 5-24 8-21 10-16 10-16 12-10 9-14 14-11 14-10 15-12 23-11 28-6 9-8 6-10 3h-8l-10-3-9-7-6-10-2-8 1-10 8-23 12-26 11-19 10-15h2l2-4 9-12 14-15 9-9 11-9 17-13 16-10 18-10 23-10 18-6 25-6 18-3z" fill="url(#paint1_linear)"/>
<path transform="translate(535,945)" d="m0 0h11l11 4 9 8 5 10 1 7v183h48v-62l3-10 5-8 8-6 9-3h11l11 4 7 6 5 8 2 7v64h33l11 4 7 6 6 10 1 3v15l-5 10-8 8-10 4-6 1h-449l-8-2-7-4-5-4-6-10-2-7v-7l4-12 8-9 12-6h34v-118l2-12 5-9 5-5 8-5 3-1h15l10 4 5 4 6 9 2 6 1 23v86l-1 18h49v-95l4-10 8-9 10-5 4-1h9l11 4 8 7 5 8 2 6v95h48v-177l1-12 6-12 8-7z" fill="url(#paint1_linear)"/>
<path transform="translate(567,1567)" d="m0 0h65l14 2 12 6 10 8 44 44 8 12 4 13v78l-4 14-7 10-11 12-35 35-11 8-12 5-4 1-13 1h-57l-14-2-10-4-11-8-46-46-7-10-4-9-2-10v-71l2-10 4-10 9-11 5-6h2v-2h2v-2h2v-2h2v-2h2v-2h2v-2h2v-2h2v-2h2v-2h2v-2h2v-2h2v-2h2l2-4h2l2-4h2l2-4 13-10 9-4zm7 61-36 36-1 6v48l36 36 6 1h36l12-1 6-5 7-8 8-7 5-6 8-7 2-3v-54l-35-35-2-1z" fill="url(#paint1_linear)"/>
<path transform="translate(1897,1598)" d="m0 0 11 2 10 6 6 7 4 10v12l-4 10-9 10-141 141-10 5-11 2-10-3-9-6-95-95-5-8-2-6v-10l4-11 8-9 10-5 4-1h9l11 4 9 7 67 67 4-2 107-107 5-6 11-9 9-4z" fill="url(#paint1_linear)"/>
<path transform="translate(1393,1661)" d="m0 0h53l10 4 6 5 6 9 2 5v14l-4 9-7 8-8 5-9 2h-46l-10-3-8-6-6-8-3-8v-11l5-12 5-6 8-5z" fill="url(#paint1_linear)"/>
<path transform="translate(1253,1661)" d="m0 0h53l10 4 6 5 6 9 2 5v14l-4 9-7 8-8 5-9 2h-46l-10-3-8-6-6-8-3-8v-11l5-12 5-6 8-5z" fill="url(#paint1_linear)"/>
<path transform="translate(1113,1661)" d="m0 0h53l10 4 6 5 6 9 2 5v14l-4 9-7 8-8 5-9 2h-46l-10-3-8-6-6-8-3-8v-11l5-12 5-6 8-5z" fill="url(#paint1_linear)"/>
<path transform="translate(973,1661)" d="m0 0h53l10 4 6 5 6 9 2 5v14l-4 9-7 8-8 5-9 2h-46l-10-3-8-6-6-8-3-9v-10l5-12 5-6 8-5z" fill="url(#paint1_linear)"/>
<defs>
<linearGradient id="paint0_linear" x1="2.12767" y1="1" x2="30.7018" y2="17.5237" gradientUnits="userSpaceOnUse">
<stop offset="0.259336" stop-color="#FFDB6E"/>
<stop offset="1" stop-color="#FFBC5E"/>
</linearGradient>
<linearGradient id="paint1_linear" x1="1.59976" y1="8.08974e-07" x2="31.8368" y2="17.6727" gradientUnits="userSpaceOnUse">
<stop offset="0.259336" stop-color="#FFDB6E"/>
<stop offset="1" stop-color="#FFBC5E"/>
</linearGradient>
</defs>
</svg>
