<svg version="1.1" viewBox="0 0 2048 2048" width="1280" height="1280" xmlns="http://www.w3.org/2000/svg">
<path opacity="0.15" fill-rule="evenodd" clip-rule="evenodd" d="M3 1C1.89543 1 1 1.89543 1 3V37C1 38.1046 1.89543 39 3 39H18.9C20.0046 39 20.9 38.1046 20.9 37V3C20.9 1.89543 20.0046 1 18.9 1H15.6631V2H6.23676V1H3Z" fill="url(#paint0_linear)"/>
<path transform="translate(729,148)" d="m0 0h23l15 3 12 5 12 7 9 7 10 10 9 13 7 15 1 5 344 1 3-9 8-16 7-9 9-10 12-9 15-8 13-4 6-1h26l14 3 12 5 11 6 15 12v2h2l10 13 8 16 4 13 2 13v13l-3 15v5l41 26 25 16 19 12 24 15 14 9 38 24 82 52 12 8 5-1 15-10 13-6 16-4h28l16 4 16 8 11 8 10 9 9 12 8 16 4 12 2 13v14l-2 14-4 12-7 14-6 8 2 4 13 19 7 9 13 18 14 19 13 18 11 15 13 18 14 19 26 36 14 19 26 36 12 16 1 2 10-3 11-2h22l15 3 16 7 11 7 8 6v2h2v2h2l11 14 8 16 5 17 1 7v17l-3 16-5 14-7 12-7 9-11 11-14 9-14 6-15 4-12 1-2 11-46 184 4 4 8 6 10 9 9 12 8 15 5 17 1 8v17l-3 15-6 16-8 13-7 9h-2v2h-2v2l-13 10-16 8-17 5-7 1h-17l-13-2-15-5-13-7-9-7-6-5v-2h-2l-10-13-8-15h-11l-181 18-7 20-8 15-8 10-9 9-15 10-15 6-10 3-7 1h-21l-17-3-2 5-8 13-9 14-15 24-11 17-24 38-35 55-6 9 2 5 8 11 7 14 4 15 1 6v21l-3 15-4 11-7 13-8 10-2 3h-2l-2 4-13 10-19 9-16 4-9 1h-10l-15-2-15-5-15-8-10-8-10-10-10-15-7-17-3-14v-21l1-8-39-20-36-18-19-10-46-23h-2l-7 8-9 9-14 10-17 9-18 6-21 4h-22l-21-4-19-7-14-8-4 2-20 20-1 2h-2l-2 4-34 34-1 2h-2v2h-2v2h-2l-2 4-38 38-1 2h-2l-2 4-34 34-7 8-40 40-1 2h-2v2h-2l-2 4-8 8h-2v2h-2l1 6 6 15 4 18v18l-3 15-3 10-10 18-9 10-5 5-10 8-15 8-16 5-13 2h-14l-16-3-16-6-13-8-10-9-8-8-9-14-5-11-4-13-1-6v-23l3-14 5-13 8-14 11-13 12-10 10-6h2l-4-21-25-142-20-114-2-12-18-4-15-6-12-8-10-9-9-10-8-13-5-12-4-17-1-9-21-6-95-25-24-6-2 5-7 9-4 5-11 9-14 8-16 6-21 3-20-2-16-5-15-8-10-8-11-11-9-14-5-11-4-13-1-6v-24l4-17 6-14 9-13 11-12 12-9-4-16-16-56-30-106-9-32-18-2-17-5-13-7-13-10-8-8-10-14-7-15-4-18v-23l4-18 8-17 9-13h2l2-4 9-8 10-7 15-7 15-4 8-1h14l15 2 9-16 14-25 25-45 9-16 10-17 6-11 8-14 6-11 13-24 9-16 14-25 10-18 3-4-1-6-7-8-6-9-7-16-4-17v-22l4-17 7-16 7-11 13-14 11-8 16-8 14-4 5-1h26l16 4 12 5 11 7 9 7 5-2 19-12 20-12 51-31 21-13 51-31 26-16 69-42 8-5-3-14v-21l4-18 6-14 9-13 9-10 8-7 13-8 14-6zm5 48-12 4-9 6-7 8-5 10-2 9v11l3 10 6 10 8 8 12 6 3 1h19l12-5 8-6 7-8 5-12 1-6v-8l-3-12-5-9-7-8-10-6-11-3zm516 0-12 4-9 7-7 8-4 8-2 7v15l4 12 8 11 10 7 11 4h16l10-3 11-7 7-8 4-8 2-7v-17l-5-13-8-10-11-7-10-3zm-423 66-6 15-7 12-8 10-8 8-14 9-9 5-1 5 16 152 2 17 27 4 18 5 18 8 16 9 16 12 13 12 11 13 10 15 8 16 6 15 2 7h9l140-16 15-2 2-3 4-25 7-21 8-16 6-10 9-12 1-3h2l7-8 11-10 18-12 16-8 21-7 15-3 1-14 2-82v-36l-16-7-12-8-10-9-9-11-7-12-5-13-1-1zm-149 42-20 12-26 16-46 28-26 16-20 12-18 11-46 28-26 16-23 14-16 10-1 5 2 12 1 15 28 10 27 9 43 15 28 10 29 10 40 14 29 10 7 2 7-10 12-17 3-3v-2h2l7-8 13-11 18-12 16-8 22-8-1-16-16-151-2-7-16-5-16-8-11-8zm638 1-6 5-14 8-13 5-3 1-1 14-2 87v30l27 9 16 8 13 8 13 10 15 15 11 15 9 16 3 5 55-14 130-33 4-3 3-17 1-5-11-8-18-11-17-11-38-24-63-40-25-16-76-48-10-6zm-999 146-9 2-10 6-6 5-6 9-4 11-1 12 3 13 6 10 7 7 8 5 9 3 10 1 12-2 12-6 6-5 6-8 4-11 1-6v-10l-4-13-6-9-9-8-11-5-4-1zm1338 2-12 4-8 6-8 9-5 12-1 5v12l3 10 6 10 8 8 10 5 8 2h14l12-4 10-7 6-7 5-10 2-16-3-13-5-9-8-9-11-6-8-2zm-415 48-18 3-15 6-11 6-13 10-10 10-7 10-6 10-7 19-2 10-1 19 2 17 7 21 8 14 9 11 9 9 13 9 16 8 14 4 13 2h17l17-3 16-6 14-8 14-11 2-4h2l9-12 7-12 5-13 3-12 1-7v-21l-4-20-6-15-10-16-12-13-12-9-12-7-16-6-18-3zm340 39-95 24-58 15-28 7-3 2-1 29-4 21-7 20-8 15 2 4 12 11 11 9 15 13 11 9 15 13 11 9 26 22 11 9 14 12 6 5h2v2h5l9-6 15-7 15-4 10-1h15l14 2 14 4 16 8 13 9 4 4h2l2 4 9 10 9 15 7 18 1 4 3 1 183 4 2-1 5-13 7-12 2-5-10-14-14-19-10-14-14-19-26-36-14-19-13-18-14-19-26-36-14-19-13-18-11-15-10 2-19 3-16-1-14-3-12-5-11-6-11-9-9-10-7-10zm-808 3-20 4-15 6-14 8-12 9v2l-4 2-10 11-9 14-8 17-4 14-2 14v20l3 17 5 15 8 16 8 11 11 12 14 11 12 7 15 6 16 4 9 1h20l17-3 15-5 19-10 14-11 9-9 11-15 8-17 4-12 3-17v-23l-3-16-5-16-9-17-10-13-12-12-13-9-15-8-15-5-15-3zm-375 1-9 10-4 4v2l-4 2-10 7-12 6-11 4-16 3h-16l-13-2-5 8-13 23-6 11-16 29-13 23-15 27-13 23-30 54-26 46 1 5 9 11 8 15 4 12 2 9 1 9 2 2 59 13 43 10 21 5h4l9-17 9-12 1-3h2l7-8 12-10 13-8 14-7 17-5 17-3h23l18 3 16 5 17 8 12 8 4-1 4-3v-2l4-2 12-11 8-7 10-9 2-1v-2l4-2 11-10 8-7 10-9 14-12 13-12 8-7 10-9 11-9 12-11-2-5-10-19-8-24-4-21v-34l1-12-9-4-34-12-49-17-92-32-37-13zm702 97-123 14-31 4-2 1-2 18-6 25-6 15-8 16-7 11 3 5 5 5h2l2 4 8 7 36 36 8 7 36 36h2v2l8 7 34 34h2l1 3 8 7 6 5 18-12 21-11 24-8 22-4 12-1h20l18 2 15 3 19 6 15 7 15 8 14 10 11 9 16 16 12 16 4 6 2 1 39-17 44-19 54-23 3-2v-24l3-17 5-14 2-4-1-4-14-12-11-9-15-13-11-9-14-12-11-9-15-13-11-9-14-12-11-9-10-8-9 6-14 9-16 8-21 7-22 4h-29l-17-3-20-6-14-6-17-10-16-13-10-10-13-17-9-16-6-14-4-10zm-417 135-12 11-8 7-10 9-14 12-13 12-8 7-14 12-14 13-11 9-14 13-8 7-15 13-1 3 7 15 6 20 2 11 2 20 12 3 75 17 7 1 7-14 10-14 2-4h2l6-7 11-9 14-9 12-6 18-6 21-3h16l16 2 15 4 13 5 18 10 11 9 10 9 11 14 9 16 6 14 5 15 118 1 6-1 7-28 8-21 11-20 6-8-1-5-13-12-43-43-8-7-45-45-8-7-40-40-5 1-18 11-17 8-20 6-14 3-10 1h-29l-19-3-20-6-18-8-14-8-12-9zm890 44-13 2-12 5-9 7-9 10-5 10-3 12v15l3 12 6 11 9 10 11 7 10 4 6 1h15l12-3 11-6 10-9 6-8 5-12 2-13-2-16-5-12-8-11-10-8-11-5-7-2zm366 20-12 4-9 6-7 8-5 10-2 8v13l4 12 8 11 8 6 12 5 11 1 11-2 14-7 8-8 6-12 2-13-2-13-6-12-6-7-10-6-8-3-5-1zm-1840 8-10 2-12 6-7 6-5 7-4 10-1 5v13l3 10 6 10 10 9 8 4 9 2h10l12-3 10-6 3-2v-2l3-1 6-10 3-8 1-10-2-13-6-12-9-9-12-6zm334 41-18 2-15 5-14 9-10 9-8 11-7 14-4 15v24l4 15 7 14 8 10 9 9 13 8 11 5 14 3h20l16-4 16-8 9-7 10-10 9-15 5-15 1-6v-22l-4-16-8-16-8-10-10-9-9-6-15-6-8-2zm1239 11-5 12-8 16-6 8 1 4 8 10 14 19 10 13 69 92 16 21 14 19 16 21 12 16 8 11 6-1 11-3 12-1 3-2 32-128 16-63v-5l-13-9-11-11-7-10-8-16-3-9-68-2-83-2zm-505 15-16 3-16 5-16 8-15 10-15 14-9 11-10 16-7 16-4 13-3 15v32l3 15 7 21 7 13 9 13 11 12 8 8 11 8 16 9 15 6 15 4 14 2h22l22-4 19-7 15-8 14-10 14-13 12-16 8-14 6-15 5-21 1-10v-20l-3-18-5-17-9-19-9-13-9-11-11-10-16-11-16-8-13-5-20-4zm-987 18-7 11-9 10-9 8-6 4 1 7 13 47 42 148 3 9 20 3 18 6 14 8 13 11 9 11 8 14 5 14 3 19 2 4 45 12 43 11 38 10 13 3 7-10v-2h2l7-8 11-9 8-5-2-13-13-59-23-106-1-1-17-1-23-5-19-8-15-9-13-11-9-9-11-15-9-17-6-17-3-16-2-20-7-2-73-17-45-10zm1311 2-128 55-10 5 1 11 3 21v29l-3 22-6 21-6 15-8 16 13 11 16 12 16 13 17 13 15 12 14 11 9 7 5-1 15-8 15-5 14-2h10l16 2 15 5 15 8 11 9 7 7 7 10 6 10 2 5 4 1 99-10 90-9 3-6 5-15 7-13 3-4-1-5-9-11-60-80-16-21-14-19-16-21-14-19-16-21-14-19-8-10-10 2-17 4-7 1h-12l-19-3-17-6-14-8-14-11-10-11zm-740 32-15 4-15 8-9 7v2l-3 1-9 12-7 14-4 14-1 9v9l3 16 6 15 9 13 9 9 14 9 13 5 14 3h16l17-4 14-7 11-8 8-8 7-10 7-16 3-16v-12l-3-16-5-13-7-11-9-10-10-8-14-7-15-4zm-205 50-4 8-10 16-12 13-11 10-14 9-13 7 36 166 3 13 19 3 12 4 18-22 13-16 11-14 10-12 8-10 13-16 16-20 13-16 8-10 6-7-1-5-10-15-9-19-5-18-3-28-7-2-52-12-30-7zm339 49-9 26-10 18-11 14-11 11-14 10-10 6-20 8-18 4-8 1h-21l-18-3-16-5-13-5-11 13-11 14-14 17-16 20-13 16-11 14-11 13-11 14-18 22 1 6 6 11 5 14 3 16 2 2 35 7 174 36 23 5h5l8-16 8-11 6-7v-2h2l5-5v-2l4-2 10-8 16-9 14-6 19-5 9-1h22l20 3 9 2 10-17 13-23 28-49 14-25 13-23 2-4-9-9-8-7-11-12-11-15-10-17-8-18-6-20-4-17zm418 103-13 11-18 12-17 9-22 8-22 5-16 2h-26l-26-4-20-6-6-1-13 24-12 21-15 26-14 25-12 21-13 22 1 4 11 11 10 14 8 14 6 15 4 16 1 7v30l-3 14 1 5 20 10 17 9 54 27 19 10 30 15h2v-2h2l5-5 10-8 16-8 13-4 7-1h24l9 2h6l42-66 12-19 7-11 10-16 15-23 11-18 10-16 4-6-1-4-9-12-7-15-4-14-1-7v-20l4-18 2-6-10-9-13-10-16-13-16-12-15-12-14-11-15-12zm547 35-12 3-11 7-7 8-5 10-2 7v14l3 10 7 11 8 7 10 5 9 2h8l12-3 8-4 10-9 5-8 3-9v-17l-4-12-7-9-8-7-9-4-9-2zm-1650 22-11 4-8 6-8 9-4 8-2 9v12l3 10 6 10 7 7 9 5 10 3h15l13-5 10-8 5-6 5-13v-18l-3-10-7-10-8-7-11-5-4-1zm1287 14-14 3-10 6-8 8-6 12-2 10 1 13 4 10 6 9 10 8 10 4 6 1h10l9-2 13-7 9-10 5-12 1-6v-10l-4-13-6-10-7-6-12-6zm-974 66-11 2-11 6-5 4-7 10-4 10-1 6v8l3 12 5 9 6 7 11 7 12 3h11l10-3 9-5 6-5v-2h2l6-10 3-13v-9l-3-11-5-9-5-6-9-6-9-4zm437 58-15 3-13 5-12 8-5 4v2h-2l-10 13-7 14-4 16v21l4 16 8 16 11 13 11 8 16 8 12 3 7 1h11l16-3 15-6 14-10 10-10 8-13 5-14 2-10v-18l-3-14-5-13-8-12-12-12-13-8-12-5-16-3zm-355 26-8 12-9 10-10 9-13 8 1 10 14 80 27 154 8 44 1 2 15 3 14 5 6 2 16-17 30-30 7-8 41-41v-2h2l6-7 39-39v-2l3-1 7-8 25-25v-2h2v-2h2l7-8 27-27-13-26-5-17-4-28-9-3-116-24-81-17-25-5zm681 174-11 4-10 7-7 9-5 12-1 13 3 13 7 11 9 8 8 4 6 2h17l12-4 9-7 7-8 4-8 2-11v-8l-3-12-6-10-7-7-14-7-5-1zm-687 202-11 4-9 6-8 9-4 8-2 9v12l3 10 6 10 8 8 9 5 7 2h18l12-5 8-6 7-8 4-9 1-4v-18l-4-11-6-9-7-6-12-6-5-1z" fill="url(#paint1_linear)"/>
<defs>
<linearGradient id="paint0_linear" x1="2.12767" y1="1" x2="30.7018" y2="17.5237" gradientUnits="userSpaceOnUse">
<stop offset="0.259336" stop-color="#FFDB6E"/>
<stop offset="1" stop-color="#FFBC5E"/>
</linearGradient>
<linearGradient id="paint1_linear" x1="1.59976" y1="8.08974e-07" x2="31.8368" y2="17.6727" gradientUnits="userSpaceOnUse">
<stop offset="0.259336" stop-color="#FFDB6E"/>
<stop offset="1" stop-color="#FFBC5E"/>
</linearGradient>
</defs>
</svg>
